<?xml version="1.0" encoding="UTF-8" standalone="no"?>
<!DOCTYPE svg PUBLIC "-//W3C//DTD SVG 1.1//EN"
 "http://www.w3.org/Graphics/SVG/1.1/DTD/svg11.dtd">
<!-- Generated by graphviz version 2.43.0 (0)
 -->
<!-- Title: G Pages: 1 -->
<svg width="1156pt" height="718pt"
 viewBox="0.00 0.00 1156.00 718.00" xmlns="http://www.w3.org/2000/svg" xmlns:xlink="http://www.w3.org/1999/xlink">
<g id="graph0" class="graph" transform="scale(1 1) rotate(0) translate(4 714)">
<title>G</title>
<polygon fill="white" stroke="transparent" points="-4,4 -4,-714 1152,-714 1152,4 -4,4"/>
<g id="clust1" class="cluster">
<title>cluster_root</title>
<g id="a_clust1"><a xlink:title="eventq_index=0&#10;full_system=false&#10;sim_quantum=0&#10;time_sync_enable=false&#10;time_sync_period=100000000000&#10;time_sync_spin_threshold=100000000">
<path fill="#bab6ae" stroke="#000000" d="M20,-8C20,-8 1128,-8 1128,-8 1134,-8 1140,-14 1140,-20 1140,-20 1140,-690 1140,-690 1140,-696 1134,-702 1128,-702 1128,-702 20,-702 20,-702 14,-702 8,-696 8,-690 8,-690 8,-20 8,-20 8,-14 14,-8 20,-8"/>
<text text-anchor="middle" x="574" y="-686.8" font-family="Arial" font-size="14.00" fill="#000000">root </text>
<text text-anchor="middle" x="574" y="-671.8" font-family="Arial" font-size="14.00" fill="#000000">: Root</text>
</a>
</g>
</g>
<g id="clust2" class="cluster">
<title>cluster_system</title>
<g id="a_clust2"><a xlink:title="auto_unlink_shared_backstore=false&#10;cache_line_size=64&#10;eventq_index=0&#10;exit_on_work_items=false&#10;init_param=0&#10;m5ops_base=0&#10;mem_mode=timing&#10;mem_ranges=0:536870912&#10;memories=system.mem_ctrl.dram&#10;mmap_using_noreserve=false&#10;multi_thread=true&#10;&#10;um_work_ids=16&#10;&#13;eadfile=&#10;&#13;edirect_paths=&#10;shadow_rom_ranges=&#10;shared_backstore=&#10;symbolfile=&#10;thermal_components=&#10;thermal_model=Null&#10;work_begin_ckpt_count=0&#10;work_begin_cpu_id_exit=&#45;1&#10;work_begin_exit_count=0&#10;work_cpus_ckpt_count=0&#10;work_end_ckpt_count=0&#10;work_end_exit_count=0&#10;work_item_id=&#45;1&#10;workload=system.workload">
<path fill="#e4e7eb" stroke="#000000" d="M28,-16C28,-16 1120,-16 1120,-16 1126,-16 1132,-22 1132,-28 1132,-28 1132,-644 1132,-644 1132,-650 1126,-656 1120,-656 1120,-656 28,-656 28,-656 22,-656 16,-650 16,-644 16,-644 16,-28 16,-28 16,-22 22,-16 28,-16"/>
<text text-anchor="middle" x="574" y="-640.8" font-family="Arial" font-size="14.00" fill="#000000">system </text>
<text text-anchor="middle" x="574" y="-625.8" font-family="Arial" font-size="14.00" fill="#000000">: System</text>
</a>
</g>
</g>
<g id="clust6" class="cluster">
<title>cluster_system_cpu</title>
<g id="a_clust6"><a xlink:title="LFSTSize=1024&#10;LQEntries=32&#10;LSQCheckLoads=true&#10;LSQDepCheckShift=4&#10;SQEntries=32&#10;SSITSize=1024&#10;activity=0&#10;backComSize=5&#10;branchPred=system.cpu.branchPred&#10;cacheLoadPorts=200&#10;cacheStorePorts=200&#10;checker=Null&#10;clk_domain=system.clk_domain&#10;commitToDecodeDelay=1&#10;commitToFetchDelay=1&#10;commitToIEWDelay=1&#10;commitToRenameDelay=1&#10;commitWidth=4&#10;cpu_id=&#45;1&#10;decodeToFetchDelay=1&#10;decodeToRenameDelay=1&#10;decodeWidth=4&#10;decoder=system.cpu.decoder0 system.cpu.decoder1&#10;dispatchWidth=8&#10;do_checkpoint_insts=true&#10;do_statistics_insts=true&#10;eventq_index=0&#10;fetchBufferSize=64&#10;fetchQueueSize=32&#10;fetchToDecodeDelay=1&#10;fetchTrapLatency=1&#10;fetchWidth=4&#10;forwardComSize=5&#10;fuPool=system.cpu.fuPool&#10;function_trace=false&#10;function_trace_start=0&#10;iewToCommitDelay=1&#10;iewToDecodeDelay=1&#10;iewToFetchDelay=1&#10;iewToRenameDelay=1&#10;interrupts=system.cpu.interrupts0 system.cpu.interrupts1&#10;isa=system.cpu.isa0 system.cpu.isa1&#10;issueToExecuteDelay=1&#10;issueWidth=4&#10;max_insts_all_threads=0&#10;max_insts_any_thread=0&#10;mmu=system.cpu.mmu&#10;&#10;eedsTSO=true&#10;&#10;umIQEntries=64&#10;&#10;umPhysCCRegs=1280&#10;&#10;umPhysFloatRegs=256&#10;&#10;umPhysIntRegs=256&#10;&#10;umPhysMatRegs=2&#10;&#10;umPhysVecPredRegs=32&#10;&#10;umPhysVecRegs=256&#10;&#10;umROBEntries=192&#10;&#10;umRobs=1&#10;&#10;umThreads=2&#10;power_gating_on_idle=false&#10;power_model=&#10;power_state=system.cpu.power_state&#10;progress_interval=0&#10;pwr_gating_latency=300&#10;&#13;enameToDecodeDelay=1&#10;&#13;enameToFetchDelay=1&#10;&#13;enameToIEWDelay=2&#10;&#13;enameToROBDelay=1&#10;&#13;enameWidth=4&#10;simpoint_start_insts=&#10;smtCommitPolicy=RoundRobin&#10;smtFetchPolicy=RoundRobin&#10;smtIQPolicy=Partitioned&#10;smtIQThreshold=100&#10;smtLSQPolicy=Threshold&#10;smtLSQThreshold=60&#10;smtNumFetchingThreads=1&#10;smtROBPolicy=Threshold&#10;smtROBThreshold=60&#10;socket_id=0&#10;squashWidth=8&#10;store_set_clear_period=250000&#10;switched_out=false&#10;syscallRetryLatency=10000&#10;system=system&#10;tracer=system.cpu.tracer&#10;trapLatency=13&#10;wbWidth=4&#10;workload=system.cpu.workload0 system.cpu.workload1">
<path fill="#bbc6d9" stroke="#000000" d="M304,-24C304,-24 1112,-24 1112,-24 1118,-24 1124,-30 1124,-36 1124,-36 1124,-286 1124,-286 1124,-292 1118,-298 1112,-298 1112,-298 304,-298 304,-298 298,-298 292,-292 292,-286 292,-286 292,-36 292,-36 292,-30 298,-24 304,-24"/>
<text text-anchor="middle" x="708" y="-282.8" font-family="Arial" font-size="14.00" fill="#000000">cpu </text>
<text text-anchor="middle" x="708" y="-267.8" font-family="Arial" font-size="14.00" fill="#000000">: X86O3CPU</text>
</a>
</g>
</g>
<g id="clust78" class="cluster">
<title>cluster_system_cpu_icache</title>
<g id="a_clust78"><a xlink:title="addr_ranges=0:18446744073709551615&#10;assoc=2&#10;clk_domain=system.clk_domain&#10;clusivity=mostly_incl&#10;compressor=Null&#10;data_latency=2&#10;demand_mshr_reserve=1&#10;eventq_index=0&#10;is_read_only=false&#10;max_miss_count=0&#10;move_contractions=true&#10;mshrs=4&#10;power_model=&#10;power_state=system.cpu.icache.power_state&#10;prefetch_on_access=false&#10;prefetch_on_pf_hit=false&#10;prefetcher=Null&#10;&#13;eplace_expansions=true&#10;&#13;eplacement_policy=system.cpu.icache.replacement_policy&#10;&#13;esponse_latency=2&#10;sequential_access=false&#10;size=32768&#10;system=system&#10;tag_latency=2&#10;tags=system.cpu.icache.tags&#10;tgts_per_mshr=20&#10;warmup_percentage=0&#10;write_allocator=Null&#10;write_buffers=8&#10;writeback_clean=false">
<path fill="#bab6ae" stroke="#000000" d="M506,-32C506,-32 668,-32 668,-32 674,-32 680,-38 680,-44 680,-44 680,-110 680,-110 680,-116 674,-122 668,-122 668,-122 506,-122 506,-122 500,-122 494,-116 494,-110 494,-110 494,-44 494,-44 494,-38 500,-32 506,-32"/>
<text text-anchor="middle" x="587" y="-106.8" font-family="Arial" font-size="14.00" fill="#000000">icache </text>
<text text-anchor="middle" x="587" y="-91.8" font-family="Arial" font-size="14.00" fill="#000000">: L1ICache</text>
</a>
</g>
</g>
<g id="clust84" class="cluster">
<title>cluster_system_cpu_dcache</title>
<g id="a_clust84"><a xlink:title="addr_ranges=0:18446744073709551615&#10;assoc=2&#10;clk_domain=system.clk_domain&#10;clusivity=mostly_incl&#10;compressor=Null&#10;data_latency=2&#10;demand_mshr_reserve=1&#10;eventq_index=0&#10;is_read_only=false&#10;max_miss_count=0&#10;move_contractions=true&#10;mshrs=4&#10;power_model=&#10;power_state=system.cpu.dcache.power_state&#10;prefetch_on_access=false&#10;prefetch_on_pf_hit=false&#10;prefetcher=Null&#10;&#13;eplace_expansions=true&#10;&#13;eplacement_policy=system.cpu.dcache.replacement_policy&#10;&#13;esponse_latency=2&#10;sequential_access=false&#10;size=32768&#10;system=system&#10;tag_latency=2&#10;tags=system.cpu.dcache.tags&#10;tgts_per_mshr=20&#10;warmup_percentage=0&#10;write_allocator=Null&#10;write_buffers=8&#10;writeback_clean=false">
<path fill="#bab6ae" stroke="#000000" d="M312,-32C312,-32 474,-32 474,-32 480,-32 486,-38 486,-44 486,-44 486,-110 486,-110 486,-116 480,-122 474,-122 474,-122 312,-122 312,-122 306,-122 300,-116 300,-110 300,-110 300,-44 300,-44 300,-38 306,-32 312,-32"/>
<text text-anchor="middle" x="393" y="-106.8" font-family="Arial" font-size="14.00" fill="#000000">dcache </text>
<text text-anchor="middle" x="393" y="-91.8" font-family="Arial" font-size="14.00" fill="#000000">: L1DCache</text>
</a>
</g>
</g>
<g id="clust90" class="cluster">
<title>cluster_system_cpu_interrupts0</title>
<g id="a_clust90"><a xlink:title="clk_domain=system.cpu.interrupts0.clk_domain&#10;eventq_index=0&#10;int_latency=1000&#10;pio_latency=100000&#10;system=system">
<path fill="#bab6ae" stroke="#000000" d="M518,-162C518,-162 795,-162 795,-162 801,-162 807,-168 807,-174 807,-174 807,-240 807,-240 807,-246 801,-252 795,-252 795,-252 518,-252 518,-252 512,-252 506,-246 506,-240 506,-240 506,-174 506,-174 506,-168 512,-162 518,-162"/>
<text text-anchor="middle" x="656.5" y="-236.8" font-family="Arial" font-size="14.00" fill="#000000">interrupts0 </text>
<text text-anchor="middle" x="656.5" y="-221.8" font-family="Arial" font-size="14.00" fill="#000000">: X86LocalApic</text>
</a>
</g>
</g>
<g id="clust92" class="cluster">
<title>cluster_system_cpu_interrupts1</title>
<g id="a_clust92"><a xlink:title="clk_domain=system.cpu.interrupts1.clk_domain&#10;eventq_index=0&#10;int_latency=1000&#10;pio_latency=100000&#10;system=system">
<path fill="#bab6ae" stroke="#000000" d="M827,-162C827,-162 1104,-162 1104,-162 1110,-162 1116,-168 1116,-174 1116,-174 1116,-240 1116,-240 1116,-246 1110,-252 1104,-252 1104,-252 827,-252 827,-252 821,-252 815,-246 815,-240 815,-240 815,-174 815,-174 815,-168 821,-162 827,-162"/>
<text text-anchor="middle" x="965.5" y="-236.8" font-family="Arial" font-size="14.00" fill="#000000">interrupts1 </text>
<text text-anchor="middle" x="965.5" y="-221.8" font-family="Arial" font-size="14.00" fill="#000000">: X86LocalApic</text>
</a>
</g>
</g>
<g id="clust100" class="cluster">
<title>cluster_system_l2bus</title>
<g id="a_clust100"><a xlink:title="clk_domain=system.clk_domain&#10;eventq_index=0&#10;forward_latency=0&#10;frontend_latency=1&#10;header_latency=1&#10;max_outstanding_snoops=512&#10;max_routing_table_size=512&#10;point_of_coherency=false&#10;point_of_unification=true&#10;power_model=&#10;power_state=system.l2bus.power_state&#10;&#13;esponse_latency=1&#10;snoop_filter=system.l2bus.snoop_filter&#10;snoop_response_latency=1&#10;system=system&#10;use_default_range=false&#10;width=32">
<path fill="#6f798c" stroke="#000000" d="M36,-162C36,-162 272,-162 272,-162 278,-162 284,-168 284,-174 284,-174 284,-240 284,-240 284,-246 278,-252 272,-252 272,-252 36,-252 36,-252 30,-252 24,-246 24,-240 24,-240 24,-174 24,-174 24,-168 30,-162 36,-162"/>
<text text-anchor="middle" x="154" y="-236.8" font-family="Arial" font-size="14.00" fill="#000000">l2bus </text>
<text text-anchor="middle" x="154" y="-221.8" font-family="Arial" font-size="14.00" fill="#000000">: L2XBar</text>
</a>
</g>
</g>
<g id="clust103" class="cluster">
<title>cluster_system_l2cache</title>
<g id="a_clust103"><a xlink:title="addr_ranges=0:18446744073709551615&#10;assoc=8&#10;clk_domain=system.clk_domain&#10;clusivity=mostly_incl&#10;compressor=Null&#10;data_latency=12&#10;demand_mshr_reserve=1&#10;eventq_index=0&#10;is_read_only=false&#10;max_miss_count=0&#10;move_contractions=true&#10;mshrs=20&#10;power_model=&#10;power_state=system.l2cache.power_state&#10;prefetch_on_access=false&#10;prefetch_on_pf_hit=false&#10;prefetcher=Null&#10;&#13;eplace_expansions=true&#10;&#13;eplacement_policy=system.l2cache.replacement_policy&#10;&#13;esponse_latency=12&#10;sequential_access=false&#10;size=262144&#10;system=system&#10;tag_latency=12&#10;tags=system.l2cache.tags&#10;tgts_per_mshr=12&#10;warmup_percentage=0&#10;write_allocator=Null&#10;write_buffers=8&#10;writeback_clean=false">
<path fill="#bab6ae" stroke="#000000" d="M251,-306C251,-306 413,-306 413,-306 419,-306 425,-312 425,-318 425,-318 425,-384 425,-384 425,-390 419,-396 413,-396 413,-396 251,-396 251,-396 245,-396 239,-390 239,-384 239,-384 239,-318 239,-318 239,-312 245,-306 251,-306"/>
<text text-anchor="middle" x="332" y="-380.8" font-family="Arial" font-size="14.00" fill="#000000">l2cache </text>
<text text-anchor="middle" x="332" y="-365.8" font-family="Arial" font-size="14.00" fill="#000000">: L2Cache</text>
</a>
</g>
</g>
<g id="clust109" class="cluster">
<title>cluster_system_membus</title>
<g id="a_clust109"><a xlink:title="clk_domain=system.clk_domain&#10;eventq_index=0&#10;forward_latency=4&#10;frontend_latency=3&#10;header_latency=1&#10;max_outstanding_snoops=512&#10;max_routing_table_size=512&#10;point_of_coherency=true&#10;point_of_unification=true&#10;power_model=&#10;power_state=system.membus.power_state&#10;&#13;esponse_latency=2&#10;snoop_filter=system.membus.snoop_filter&#10;snoop_response_latency=4&#10;system=system&#10;use_default_range=false&#10;width=16">
<path fill="#6f798c" stroke="#000000" d="M601,-436C601,-436 837,-436 837,-436 843,-436 849,-442 849,-448 849,-448 849,-514 849,-514 849,-520 843,-526 837,-526 837,-526 601,-526 601,-526 595,-526 589,-520 589,-514 589,-514 589,-448 589,-448 589,-442 595,-436 601,-436"/>
<text text-anchor="middle" x="719" y="-510.8" font-family="Arial" font-size="14.00" fill="#000000">membus </text>
<text text-anchor="middle" x="719" y="-495.8" font-family="Arial" font-size="14.00" fill="#000000">: SystemXBar</text>
</a>
</g>
</g>
<g id="clust112" class="cluster">
<title>cluster_system_mem_ctrl</title>
<g id="a_clust112"><a xlink:title="clk_domain=system.clk_domain&#10;command_window=10000&#10;disable_sanity_check=false&#10;dram=system.mem_ctrl.dram&#10;eventq_index=0&#10;mem_sched_policy=frfcfs&#10;min_reads_per_switch=16&#10;min_writes_per_switch=16&#10;power_model=&#10;power_state=system.mem_ctrl.power_state&#10;qos_policy=Null&#10;qos_priorities=1&#10;qos_priority_escalation=false&#10;qos_q_policy=fifo&#10;qos_requestors= &#160;&#160;&#160;&#160;&#160;&#160;&#160;&#160;&#160;&#160;&#160;&#160;&#160;&#160;&#10;qos_syncro_scheduler=false&#10;qos_turnaround_policy=Null&#10;static_backend_latency=10000&#10;static_frontend_latency=10000&#10;system=system&#10;write_high_thresh_perc=85&#10;write_low_thresh_perc=50">
<path fill="#bab6ae" stroke="#000000" d="M834,-306C834,-306 887,-306 887,-306 893,-306 899,-312 899,-318 899,-318 899,-384 899,-384 899,-390 893,-396 887,-396 887,-396 834,-396 834,-396 828,-396 822,-390 822,-384 822,-384 822,-318 822,-318 822,-312 828,-306 834,-306"/>
<text text-anchor="middle" x="860.5" y="-380.8" font-family="Arial" font-size="14.00" fill="#000000">mem_ctrl </text>
<text text-anchor="middle" x="860.5" y="-365.8" font-family="Arial" font-size="14.00" fill="#000000">: MemCtrl</text>
</a>
</g>
</g>
<!-- system_system_port -->
<g id="node1" class="node">
<title>system_system_port</title>
<path fill="#b6b8bc" stroke="#000000" d="M684.5,-610C684.5,-610 617.5,-610 617.5,-610 611.5,-610 605.5,-604 605.5,-598 605.5,-598 605.5,-586 605.5,-586 605.5,-580 611.5,-574 617.5,-574 617.5,-574 684.5,-574 684.5,-574 690.5,-574 696.5,-580 696.5,-586 696.5,-586 696.5,-598 696.5,-598 696.5,-604 690.5,-610 684.5,-610"/>
<text text-anchor="middle" x="651" y="-588.3" font-family="Arial" font-size="14.00" fill="#000000">system_port</text>
</g>
<!-- system_membus_cpu_side_ports -->
<g id="node18" class="node">
<title>system_membus_cpu_side_ports</title>
<path fill="#586070" stroke="#000000" d="M693,-480C693,-480 609,-480 609,-480 603,-480 597,-474 597,-468 597,-468 597,-456 597,-456 597,-450 603,-444 609,-444 609,-444 693,-444 693,-444 699,-444 705,-450 705,-456 705,-456 705,-468 705,-468 705,-474 699,-480 693,-480"/>
<text text-anchor="middle" x="651" y="-458.3" font-family="Arial" font-size="14.00" fill="#000000">cpu_side_ports</text>
</g>
<!-- system_system_port&#45;&gt;system_membus_cpu_side_ports -->
<g id="edge1" class="edge">
<title>system_system_port&#45;&gt;system_membus_cpu_side_ports</title>
<path fill="none" stroke="black" d="M651,-573.74C651,-552.36 651,-515.69 651,-490.44"/>
<polygon fill="black" stroke="black" points="654.5,-490.4 651,-480.4 647.5,-490.4 654.5,-490.4"/>
</g>
<!-- system_cpu_icache_port -->
<g id="node2" class="node">
<title>system_cpu_icache_port</title>
<path fill="#959ead" stroke="#000000" d="M484,-206C484,-206 422,-206 422,-206 416,-206 410,-200 410,-194 410,-194 410,-182 410,-182 410,-176 416,-170 422,-170 422,-170 484,-170 484,-170 490,-170 496,-176 496,-182 496,-182 496,-194 496,-194 496,-200 490,-206 484,-206"/>
<text text-anchor="middle" x="453" y="-184.3" font-family="Arial" font-size="14.00" fill="#000000">icache_port</text>
</g>
<!-- system_cpu_icache_cpu_side -->
<g id="node4" class="node">
<title>system_cpu_icache_cpu_side</title>
<path fill="#94918b" stroke="#000000" d="M659.5,-76C659.5,-76 612.5,-76 612.5,-76 606.5,-76 600.5,-70 600.5,-64 600.5,-64 600.5,-52 600.5,-52 600.5,-46 606.5,-40 612.5,-40 612.5,-40 659.5,-40 659.5,-40 665.5,-40 671.5,-46 671.5,-52 671.5,-52 671.5,-64 671.5,-64 671.5,-70 665.5,-76 659.5,-76"/>
<text text-anchor="middle" x="636" y="-54.3" font-family="Arial" font-size="14.00" fill="#000000">cpu_side</text>
</g>
<!-- system_cpu_icache_port&#45;&gt;system_cpu_icache_cpu_side -->
<g id="edge2" class="edge">
<title>system_cpu_icache_port&#45;&gt;system_cpu_icache_cpu_side</title>
<path fill="none" stroke="black" d="M485.84,-169.97C491.22,-167.26 496.75,-164.52 502,-162 541.1,-143.25 557.46,-149.49 591,-122 603.47,-111.79 614.13,-97.32 621.94,-84.83"/>
<polygon fill="black" stroke="black" points="624.99,-86.55 627.11,-76.17 618.98,-82.96 624.99,-86.55"/>
</g>
<!-- system_cpu_dcache_port -->
<g id="node3" class="node">
<title>system_cpu_dcache_port</title>
<path fill="#959ead" stroke="#000000" d="M379.5,-206C379.5,-206 312.5,-206 312.5,-206 306.5,-206 300.5,-200 300.5,-194 300.5,-194 300.5,-182 300.5,-182 300.5,-176 306.5,-170 312.5,-170 312.5,-170 379.5,-170 379.5,-170 385.5,-170 391.5,-176 391.5,-182 391.5,-182 391.5,-194 391.5,-194 391.5,-200 385.5,-206 379.5,-206"/>
<text text-anchor="middle" x="346" y="-184.3" font-family="Arial" font-size="14.00" fill="#000000">dcache_port</text>
</g>
<!-- system_cpu_dcache_cpu_side -->
<g id="node6" class="node">
<title>system_cpu_dcache_cpu_side</title>
<path fill="#94918b" stroke="#000000" d="M465.5,-76C465.5,-76 418.5,-76 418.5,-76 412.5,-76 406.5,-70 406.5,-64 406.5,-64 406.5,-52 406.5,-52 406.5,-46 412.5,-40 418.5,-40 418.5,-40 465.5,-40 465.5,-40 471.5,-40 477.5,-46 477.5,-52 477.5,-52 477.5,-64 477.5,-64 477.5,-70 471.5,-76 465.5,-76"/>
<text text-anchor="middle" x="442" y="-54.3" font-family="Arial" font-size="14.00" fill="#000000">cpu_side</text>
</g>
<!-- system_cpu_dcache_port&#45;&gt;system_cpu_dcache_cpu_side -->
<g id="edge3" class="edge">
<title>system_cpu_dcache_port&#45;&gt;system_cpu_dcache_cpu_side</title>
<path fill="none" stroke="black" d="M359.85,-169.78C370.23,-156.78 384.71,-138.42 397,-122 406.12,-109.83 415.97,-96.11 424.12,-84.58"/>
<polygon fill="black" stroke="black" points="427.08,-86.45 429.98,-76.26 421.36,-82.42 427.08,-86.45"/>
</g>
<!-- system_cpu_icache_mem_side -->
<g id="node5" class="node">
<title>system_cpu_icache_mem_side</title>
<path fill="#94918b" stroke="#000000" d="M570,-76C570,-76 514,-76 514,-76 508,-76 502,-70 502,-64 502,-64 502,-52 502,-52 502,-46 508,-40 514,-40 514,-40 570,-40 570,-40 576,-40 582,-46 582,-52 582,-52 582,-64 582,-64 582,-70 576,-76 570,-76"/>
<text text-anchor="middle" x="542" y="-54.3" font-family="Arial" font-size="14.00" fill="#000000">mem_side</text>
</g>
<!-- system_cpu_dcache_mem_side -->
<g id="node7" class="node">
<title>system_cpu_dcache_mem_side</title>
<path fill="#94918b" stroke="#000000" d="M376,-76C376,-76 320,-76 320,-76 314,-76 308,-70 308,-64 308,-64 308,-52 308,-52 308,-46 314,-40 320,-40 320,-40 376,-40 376,-40 382,-40 388,-46 388,-52 388,-52 388,-64 388,-64 388,-70 382,-76 376,-76"/>
<text text-anchor="middle" x="348" y="-54.3" font-family="Arial" font-size="14.00" fill="#000000">mem_side</text>
</g>
<!-- system_cpu_interrupts0_int_requestor -->
<g id="node8" class="node">
<title>system_cpu_interrupts0_int_requestor</title>
<path fill="#94918b" stroke="#000000" d="M597.5,-206C597.5,-206 526.5,-206 526.5,-206 520.5,-206 514.5,-200 514.5,-194 514.5,-194 514.5,-182 514.5,-182 514.5,-176 520.5,-170 526.5,-170 526.5,-170 597.5,-170 597.5,-170 603.5,-170 609.5,-176 609.5,-182 609.5,-182 609.5,-194 609.5,-194 609.5,-200 603.5,-206 597.5,-206"/>
<text text-anchor="middle" x="562" y="-184.3" font-family="Arial" font-size="14.00" fill="#000000">int_requestor</text>
</g>
<!-- system_cpu_interrupts0_int_responder -->
<g id="node9" class="node">
<title>system_cpu_interrupts0_int_responder</title>
<path fill="#94918b" stroke="#000000" d="M714.5,-206C714.5,-206 639.5,-206 639.5,-206 633.5,-206 627.5,-200 627.5,-194 627.5,-194 627.5,-182 627.5,-182 627.5,-176 633.5,-170 639.5,-170 639.5,-170 714.5,-170 714.5,-170 720.5,-170 726.5,-176 726.5,-182 726.5,-182 726.5,-194 726.5,-194 726.5,-200 720.5,-206 714.5,-206"/>
<text text-anchor="middle" x="677" y="-184.3" font-family="Arial" font-size="14.00" fill="#000000">int_responder</text>
</g>
<!-- system_cpu_interrupts0_pio -->
<g id="node10" class="node">
<title>system_cpu_interrupts0_pio</title>
<path fill="#94918b" stroke="#000000" d="M787,-206C787,-206 757,-206 757,-206 751,-206 745,-200 745,-194 745,-194 745,-182 745,-182 745,-176 751,-170 757,-170 757,-170 787,-170 787,-170 793,-170 799,-176 799,-182 799,-182 799,-194 799,-194 799,-200 793,-206 787,-206"/>
<text text-anchor="middle" x="772" y="-184.3" font-family="Arial" font-size="14.00" fill="#000000">pio</text>
</g>
<!-- system_cpu_interrupts1_int_requestor -->
<g id="node11" class="node">
<title>system_cpu_interrupts1_int_requestor</title>
<path fill="#94918b" stroke="#000000" d="M906.5,-206C906.5,-206 835.5,-206 835.5,-206 829.5,-206 823.5,-200 823.5,-194 823.5,-194 823.5,-182 823.5,-182 823.5,-176 829.5,-170 835.5,-170 835.5,-170 906.5,-170 906.5,-170 912.5,-170 918.5,-176 918.5,-182 918.5,-182 918.5,-194 918.5,-194 918.5,-200 912.5,-206 906.5,-206"/>
<text text-anchor="middle" x="871" y="-184.3" font-family="Arial" font-size="14.00" fill="#000000">int_requestor</text>
</g>
<!-- system_cpu_interrupts1_int_responder -->
<g id="node12" class="node">
<title>system_cpu_interrupts1_int_responder</title>
<path fill="#94918b" stroke="#000000" d="M1023.5,-206C1023.5,-206 948.5,-206 948.5,-206 942.5,-206 936.5,-200 936.5,-194 936.5,-194 936.5,-182 936.5,-182 936.5,-176 942.5,-170 948.5,-170 948.5,-170 1023.5,-170 1023.5,-170 1029.5,-170 1035.5,-176 1035.5,-182 1035.5,-182 1035.5,-194 1035.5,-194 1035.5,-200 1029.5,-206 1023.5,-206"/>
<text text-anchor="middle" x="986" y="-184.3" font-family="Arial" font-size="14.00" fill="#000000">int_responder</text>
</g>
<!-- system_cpu_interrupts1_pio -->
<g id="node13" class="node">
<title>system_cpu_interrupts1_pio</title>
<path fill="#94918b" stroke="#000000" d="M1096,-206C1096,-206 1066,-206 1066,-206 1060,-206 1054,-200 1054,-194 1054,-194 1054,-182 1054,-182 1054,-176 1060,-170 1066,-170 1066,-170 1096,-170 1096,-170 1102,-170 1108,-176 1108,-182 1108,-182 1108,-194 1108,-194 1108,-200 1102,-206 1096,-206"/>
<text text-anchor="middle" x="1081" y="-184.3" font-family="Arial" font-size="14.00" fill="#000000">pio</text>
</g>
<!-- system_l2bus_cpu_side_ports -->
<g id="node14" class="node">
<title>system_l2bus_cpu_side_ports</title>
<path fill="#586070" stroke="#000000" d="M264,-206C264,-206 180,-206 180,-206 174,-206 168,-200 168,-194 168,-194 168,-182 168,-182 168,-176 174,-170 180,-170 180,-170 264,-170 264,-170 270,-170 276,-176 276,-182 276,-182 276,-194 276,-194 276,-200 270,-206 264,-206"/>
<text text-anchor="middle" x="222" y="-184.3" font-family="Arial" font-size="14.00" fill="#000000">cpu_side_ports</text>
</g>
<!-- system_l2bus_cpu_side_ports&#45;&gt;system_cpu_icache_mem_side -->
<g id="edge4" class="edge">
<title>system_l2bus_cpu_side_ports&#45;&gt;system_cpu_icache_mem_side</title>
<path fill="none" stroke="black" d="M273.69,-166.49C278.49,-164.87 283.31,-163.34 288,-162 375.99,-136.81 411.41,-168.91 490,-122 508.51,-110.95 523.37,-90.81 532.39,-76.27"/>
<polygon fill="black" stroke="black" points="272.17,-163.32 263.9,-169.94 274.49,-169.92 272.17,-163.32"/>
</g>
<!-- system_l2bus_cpu_side_ports&#45;&gt;system_cpu_dcache_mem_side -->
<g id="edge5" class="edge">
<title>system_l2bus_cpu_side_ports&#45;&gt;system_cpu_dcache_mem_side</title>
<path fill="none" stroke="black" d="M246.24,-162.37C271.06,-137.16 309.01,-98.6 330.87,-76.4"/>
<polygon fill="black" stroke="black" points="243.51,-160.16 238.99,-169.74 248.5,-165.07 243.51,-160.16"/>
</g>
<!-- system_l2bus_mem_side_ports -->
<g id="node15" class="node">
<title>system_l2bus_mem_side_ports</title>
<path fill="#586070" stroke="#000000" d="M138,-206C138,-206 44,-206 44,-206 38,-206 32,-200 32,-194 32,-194 32,-182 32,-182 32,-176 38,-170 44,-170 44,-170 138,-170 138,-170 144,-170 150,-176 150,-182 150,-182 150,-194 150,-194 150,-200 144,-206 138,-206"/>
<text text-anchor="middle" x="91" y="-184.3" font-family="Arial" font-size="14.00" fill="#000000">mem_side_ports</text>
</g>
<!-- system_l2cache_cpu_side -->
<g id="node16" class="node">
<title>system_l2cache_cpu_side</title>
<path fill="#94918b" stroke="#000000" d="M404.5,-350C404.5,-350 357.5,-350 357.5,-350 351.5,-350 345.5,-344 345.5,-338 345.5,-338 345.5,-326 345.5,-326 345.5,-320 351.5,-314 357.5,-314 357.5,-314 404.5,-314 404.5,-314 410.5,-314 416.5,-320 416.5,-326 416.5,-326 416.5,-338 416.5,-338 416.5,-344 410.5,-350 404.5,-350"/>
<text text-anchor="middle" x="381" y="-328.3" font-family="Arial" font-size="14.00" fill="#000000">cpu_side</text>
</g>
<!-- system_l2cache_cpu_side&#45;&gt;system_l2bus_mem_side_ports -->
<g id="edge6" class="edge">
<title>system_l2cache_cpu_side&#45;&gt;system_l2bus_mem_side_ports</title>
<path fill="none" stroke="black" d="M345.53,-309.4C342.38,-308.06 339.18,-306.9 336,-306 317.06,-300.63 175.99,-307.94 159,-298 124.15,-277.62 104.59,-231.57 96.12,-206.34"/>
<polygon fill="black" stroke="black" points="344.22,-312.65 354.75,-313.79 347.24,-306.33 344.22,-312.65"/>
</g>
<!-- system_l2cache_mem_side -->
<g id="node17" class="node">
<title>system_l2cache_mem_side</title>
<path fill="#94918b" stroke="#000000" d="M315,-350C315,-350 259,-350 259,-350 253,-350 247,-344 247,-338 247,-338 247,-326 247,-326 247,-320 253,-314 259,-314 259,-314 315,-314 315,-314 321,-314 327,-320 327,-326 327,-326 327,-338 327,-338 327,-344 321,-350 315,-350"/>
<text text-anchor="middle" x="287" y="-328.3" font-family="Arial" font-size="14.00" fill="#000000">mem_side</text>
</g>
<!-- system_membus_cpu_side_ports&#45;&gt;system_cpu_interrupts0_int_requestor -->
<g id="edge8" class="edge">
<title>system_membus_cpu_side_ports&#45;&gt;system_cpu_interrupts0_int_requestor</title>
<path fill="none" stroke="black" d="M642.21,-434.15C624,-378.48 582.58,-251.89 567.57,-206.01"/>
<polygon fill="black" stroke="black" points="639,-435.57 645.43,-443.99 645.65,-433.39 639,-435.57"/>
</g>
<!-- system_membus_cpu_side_ports&#45;&gt;system_cpu_interrupts1_int_requestor -->
<g id="edge9" class="edge">
<title>system_membus_cpu_side_ports&#45;&gt;system_cpu_interrupts1_int_requestor</title>
<path fill="none" stroke="black" d="M665.58,-434.86C686.38,-400.04 727.87,-339.02 780,-306 792.02,-298.39 799.76,-306.73 811,-298 841.54,-274.29 858.71,-230.45 866.27,-206.22"/>
<polygon fill="black" stroke="black" points="662.54,-433.13 660.51,-443.53 668.58,-436.66 662.54,-433.13"/>
</g>
<!-- system_membus_cpu_side_ports&#45;&gt;system_l2cache_mem_side -->
<g id="edge7" class="edge">
<title>system_membus_cpu_side_ports&#45;&gt;system_l2cache_mem_side</title>
<path fill="none" stroke="black" d="M586.95,-460.32C519.98,-456.87 414.1,-443.48 337,-396 318.93,-384.87 304.69,-364.75 296.1,-350.23"/>
<polygon fill="black" stroke="black" points="586.8,-463.81 596.94,-460.77 587.11,-456.82 586.8,-463.81"/>
</g>
<!-- system_membus_mem_side_ports -->
<g id="node19" class="node">
<title>system_membus_mem_side_ports</title>
<path fill="#586070" stroke="#000000" d="M829,-480C829,-480 735,-480 735,-480 729,-480 723,-474 723,-468 723,-468 723,-456 723,-456 723,-450 729,-444 735,-444 735,-444 829,-444 829,-444 835,-444 841,-450 841,-456 841,-456 841,-468 841,-468 841,-474 835,-480 829,-480"/>
<text text-anchor="middle" x="782" y="-458.3" font-family="Arial" font-size="14.00" fill="#000000">mem_side_ports</text>
</g>
<!-- system_membus_mem_side_ports&#45;&gt;system_cpu_interrupts0_int_responder -->
<g id="edge11" class="edge">
<title>system_membus_mem_side_ports&#45;&gt;system_cpu_interrupts0_int_responder</title>
<path fill="none" stroke="black" d="M775.43,-443.99C757.68,-398 708.64,-270.97 687.23,-215.5"/>
<polygon fill="black" stroke="black" points="690.43,-214.08 683.57,-206.01 683.9,-216.6 690.43,-214.08"/>
</g>
<!-- system_membus_mem_side_ports&#45;&gt;system_cpu_interrupts0_pio -->
<g id="edge10" class="edge">
<title>system_membus_mem_side_ports&#45;&gt;system_cpu_interrupts0_pio</title>
<path fill="none" stroke="black" d="M781.37,-443.99C779.69,-398.19 775.05,-272.03 773,-216.19"/>
<polygon fill="black" stroke="black" points="776.49,-215.87 772.63,-206.01 769.5,-216.13 776.49,-215.87"/>
</g>
<!-- system_membus_mem_side_ports&#45;&gt;system_cpu_interrupts1_int_responder -->
<g id="edge13" class="edge">
<title>system_membus_mem_side_ports&#45;&gt;system_cpu_interrupts1_int_responder</title>
<path fill="none" stroke="black" d="M782.19,-443.81C782.98,-407.37 786.99,-324.21 807,-306 826.93,-287.86 905.37,-312.63 928,-298 956.64,-279.49 972.08,-241.89 979.67,-216.08"/>
<polygon fill="black" stroke="black" points="983.12,-216.73 982.37,-206.16 976.37,-214.89 983.12,-216.73"/>
</g>
<!-- system_membus_mem_side_ports&#45;&gt;system_cpu_interrupts1_pio -->
<g id="edge12" class="edge">
<title>system_membus_mem_side_ports&#45;&gt;system_cpu_interrupts1_pio</title>
<path fill="none" stroke="black" d="M787.08,-443.98C790.89,-430.92 796.09,-412.4 800,-396 809.45,-356.32 786.91,-332.41 818,-306 837.23,-289.66 1024.81,-313.14 1045,-298 1070.25,-279.06 1078.04,-241.84 1080.3,-216.2"/>
<polygon fill="black" stroke="black" points="1083.81,-216.22 1080.97,-206.01 1076.82,-215.76 1083.81,-216.22"/>
</g>
<!-- system_mem_ctrl_port -->
<g id="node20" class="node">
<title>system_mem_ctrl_port</title>
<path fill="#94918b" stroke="#000000" d="M873,-350C873,-350 843,-350 843,-350 837,-350 831,-344 831,-338 831,-338 831,-326 831,-326 831,-320 837,-314 843,-314 843,-314 873,-314 873,-314 879,-314 885,-320 885,-326 885,-326 885,-338 885,-338 885,-344 879,-350 873,-350"/>
<text text-anchor="middle" x="858" y="-328.3" font-family="Arial" font-size="14.00" fill="#000000">port</text>
</g>
<!-- system_membus_mem_side_ports&#45;&gt;system_mem_ctrl_port -->
<g id="edge14" class="edge">
<title>system_membus_mem_side_ports&#45;&gt;system_mem_ctrl_port</title>
<path fill="none" stroke="black" d="M792.25,-443.74C805.17,-421.98 827.5,-384.38 842.5,-359.1"/>
<polygon fill="black" stroke="black" points="845.57,-360.78 847.67,-350.4 839.56,-357.21 845.57,-360.78"/>
</g>
</g>
</svg>
